<svg xmlns="http://www.w3.org/2000/svg" width="88.716" height="85.544" viewBox="0 0 88.716 85.544">
  <g id="_1" data-name="1" transform="translate(-10.491)" style="isolation: isolate">
    <g id="ایکن" transform="translate(0 0)" opacity="1">
      <rect id="Rectangle_2" data-name="Rectangle 2" width="43.052" height="12.781" rx="6.391" transform="translate(13.764 30.078) rotate(-30)" fill="#2a2e41" opacity="0.34"/>
      <rect id="Rectangle_3" data-name="Rectangle 3" width="73.995" height="12.781" rx="6.391" transform="translate(10.491 59.339) rotate(-30)" fill="#2a2e41" opacity="0.34"/>
      <rect id="Rectangle_4" data-name="Rectangle 4" width="53.815" height="12.781" rx="6.391" transform="translate(34.618 74.475) rotate(-30)" fill="#2a2e41" opacity="0.34"/>
      <rect id="Rectangle_5" data-name="Rectangle 5" width="15.472" height="12.781" rx="6.391" transform="translate(79.417 20.324) rotate(-30)" fill="#2a2e41" opacity="0.34"/>
      <g id="Ellipse_6" data-name="Ellipse 6" transform="translate(75.317 75.659)" fill="none" stroke="#fb9d18" stroke-width="1" opacity="0.8">
        <circle cx="2.171" cy="2.171" r="2.171" stroke="none"/>
        <circle cx="2.171" cy="2.171" r="1.671" fill="none"/>
      </g>
      <g id="Ellipse_9" data-name="Ellipse 9" transform="translate(91.171 49.927)" fill="none" stroke="#189ffb" stroke-width="1" opacity="0.8">
        <circle cx="3.256" cy="3.256" r="3.256" stroke="none"/>
        <circle cx="3.256" cy="3.256" r="2.756" fill="none"/>
      </g>
      <g id="Ellipse_10" data-name="Ellipse 10" transform="translate(43.415 0)" fill="none" stroke="#189ffb" stroke-width="1" opacity="0.8">
        <circle cx="2.171" cy="2.171" r="2.171" stroke="none"/>
        <circle cx="2.171" cy="2.171" r="1.671" fill="none"/>
      </g>
      <g id="Group_3" data-name="Group 3" transform="translate(11 11.87)" opacity="1">
        <rect id="Rectangle_6" data-name="Rectangle 6" width="6.512" transform="translate(0 1.154)" fill="#78b116"/>
        <rect id="Rectangle_7" data-name="Rectangle 7" width="4.599" height="1.15" transform="translate(1.665 4.599) rotate(-90)" fill="#78b116"/>
      </g>
      <path id="Path_2" data-name="Path 2" d="M558.941,272.559l1.233-3.476-3.924.9Z" transform="translate(-539.583 -214.442)" fill="none" stroke="#fb69da" stroke-width="1" opacity="0.8"/>
      <path id="Path_3" data-name="Path 3" d="M558.941,272.559l1.233-3.476-3.924.9Z" transform="translate(-462.491 -260.689)" fill="none" stroke="#fba225" stroke-width="1" opacity="0.8"/>
    </g>
  </g>
</svg>
