<svg id="Group_66007" data-name="Group 66007" xmlns="http://www.w3.org/2000/svg" width="33" height="33" viewBox="0 0 33 33">
  <g id="دکمه_هاور" data-name="دکمه هاور">
    <g id="Rectangle_35679" data-name="Rectangle 35679" fill="#fff" stroke="#f7f8fa" stroke-width="1">
      <rect width="33" height="33" rx="12" stroke="none"/>
      <rect x="0.5" y="0.5" width="32" height="32" rx="11.5" fill="none"/>
    </g>
  </g>
  <path id="Lock" d="M7.306,7.758l.343,3.088-.694.055A2.111,2.111,0,0,0,5.04,12.665a20.641,20.641,0,0,0,0,6.671A2.111,2.111,0,0,0,6.955,21.1l1.5.119a44.613,44.613,0,0,0,7.1,0l1.5-.119a2.111,2.111,0,0,0,1.916-1.763,20.64,20.64,0,0,0,0-6.671A2.111,2.111,0,0,0,17.045,10.9l-.694-.055.343-3.088a4.952,4.952,0,0,0,0-1.1l-.023-.2a4.7,4.7,0,0,0-9.342,0l-.023.2A4.959,4.959,0,0,0,7.306,7.758ZM12.374,3.8A3.2,3.2,0,0,0,8.82,6.624l-.023.2a3.459,3.459,0,0,0,0,.764l.349,3.139a44.6,44.6,0,0,1,5.708,0L15.2,7.593a3.46,3.46,0,0,0,0-.764l-.023-.2A3.2,3.2,0,0,0,12.374,3.8ZM12,14.5A1.5,1.5,0,1,0,13.5,16,1.5,1.5,0,0,0,12,14.5Z" transform="translate(4.232 4.723)" fill="#200e32" fill-rule="evenodd"/>
</svg>
