<svg id="Group_66007" data-name="Group 66007" xmlns="http://www.w3.org/2000/svg" width="33" height="33" viewBox="0 0 33 33">
  <g id="دکمه_هاور" data-name="دکمه هاور">
    <rect id="Rectangle_35679" data-name="Rectangle 35679" width="33" height="33" rx="12" fill="#8f2ffd"/>
  </g>
  <g id="Eye" transform="translate(4.5 4.5)">
    <path id="Path_193241" data-name="Path 193241" d="M12,9.75A2.25,2.25,0,1,0,14.25,12,2.25,2.25,0,0,0,12,9.75Z" fill="#fff"/>
    <path id="Path_193242" data-name="Path 193242" d="M12,5.5A11.129,11.129,0,0,0,5.332,7.853,9.614,9.614,0,0,0,3.3,9.934,3.845,3.845,0,0,0,2.5,12a3.844,3.844,0,0,0,.8,2.066,9.612,9.612,0,0,0,2.035,2.08A11.129,11.129,0,0,0,12,18.5a11.129,11.129,0,0,0,6.668-2.353,9.611,9.611,0,0,0,2.035-2.08A3.845,3.845,0,0,0,21.5,12a3.845,3.845,0,0,0-.8-2.066,9.613,9.613,0,0,0-2.035-2.08A11.129,11.129,0,0,0,12,5.5ZM8.25,12A3.75,3.75,0,1,1,12,15.75,3.75,3.75,0,0,1,8.25,12Z" fill="#fff" fill-rule="evenodd"/>
  </g>
</svg>
