<svg id="XMLID_62_" xmlns="http://www.w3.org/2000/svg" width="14.815" height="16.972" viewBox="0 0 14.815 16.972">
  <path id="XMLID_66_" d="M40.562,108.161H33.169V97.58H34.3V96.021h-1.42a1.245,1.245,0,0,0-1.244,1.243v11.213a1.243,1.243,0,0,0,1.243,1.243H40.85a1.243,1.243,0,0,0,1.243-1.243v-.332H40.562v.015Z" transform="translate(-31.638 -92.749)" fill="rgba(255,255,255,0.72)"/>
  <path id="XMLID_63_" d="M169.832,2.329,167.717.214A.726.726,0,0,0,167.2,0h-6.366a1.245,1.245,0,0,0-1.244,1.243V12.456a1.243,1.243,0,0,0,1.244,1.244H168.8a1.243,1.243,0,0,0,1.243-1.244V2.845A.724.724,0,0,0,169.832,2.329Zm-1.317,9.811h-7.393V1.56h5.141V2.928a.885.885,0,0,0,.884.884h1.368Z" transform="translate(-155.231 0)" fill="rgba(255,255,255,0.72)"/>
</svg>
