<svg xmlns="http://www.w3.org/2000/svg" xmlns:xlink="http://www.w3.org/1999/xlink" width="146" height="63" viewBox="0 0 146 63">
  <defs>
    <clipPath id="clip-path">
      <rect id="Rectangle_46605" data-name="Rectangle 46605" width="146" height="63" transform="translate(1643 1045)" fill="#fff" stroke="#707070" stroke-width="1"/>
    </clipPath>
    <linearGradient id="linear-gradient" x1="0.731" y1="0.05" x2="0.348" y2="1.007" gradientUnits="objectBoundingBox">
      <stop offset="0" stop-color="#31069d"/>
      <stop offset="0.545" stop-color="#023b97"/>
      <stop offset="1" stop-color="#00ebed"/>
    </linearGradient>
    <linearGradient id="linear-gradient-2" x1="0.667" x2="0.398" y2="1.08" gradientUnits="objectBoundingBox">
      <stop offset="0" stop-color="#f1402c"/>
      <stop offset="0.485" stop-color="#f55638"/>
      <stop offset="1" stop-color="#fcec00"/>
    </linearGradient>
  </defs>
  <g id="logo_-h" data-name="logo -h" transform="translate(-1643 -1045)" clip-path="url(#clip-path)">
    <rect id="Rectangle_46602" data-name="Rectangle 46602" width="56.317" height="57.012" rx="28" transform="translate(1647 1047.575)" fill="rgba(255,255,255,0.44)"/>
    <path id="Path_193519" data-name="Path 193519" d="M21.092,13.629q-5.752,0-11.5,0a1.744,1.744,0,0,0-1.73,2.084,1.921,1.921,0,0,0,.5,1.029l9.262,11.018q1.3,1.544,2.6,3.085c.087.1.242.2.168.361-.063.139-.22.082-.337.081q-4.872-.031-9.743-.064a.734.734,0,0,1-.605-.292c-2.471-2.972-4.991-5.9-7.412-8.919C-2.056,16.6.056,8.24,6.338,5.84a8.819,8.819,0,0,1,3.174-.567l10.645,0c.6,0,.6,0,.635-.656.062-1.206.135-2.412.184-3.619.017-.425.1-.8.509-.951s.72.076.992.41q2.431,2.981,4.88,5.945c1.847,2.221,3.715,4.422,5.567,6.638.108.129.352.233.252.444-.078.163-.3.076-.457.076q-5.813.006-11.627,0Z" transform="translate(1698.88 1092.787) rotate(179)" fill="#fff" opacity="0.38"/>
    <path id="Path_193522" data-name="Path 193522" d="M21.092,13.629q-5.752,0-11.5,0a1.744,1.744,0,0,0-1.73,2.084,1.921,1.921,0,0,0,.5,1.029l9.262,11.018q1.3,1.544,2.6,3.085c.087.1.242.2.168.361-.063.139-.22.082-.337.081q-4.872-.031-9.743-.064a.734.734,0,0,1-.605-.292c-2.471-2.972-4.991-5.9-7.412-8.919C-2.056,16.6.056,8.24,6.338,5.84a8.819,8.819,0,0,1,3.174-.567l10.645,0c.6,0,.6,0,.635-.656.062-1.206.135-2.412.184-3.619.017-.425.1-.8.509-.951s.72.076.992.41q2.431,2.981,4.88,5.945c1.847,2.221,3.715,4.422,5.567,6.638.108.129.352.233.252.444-.078.163-.3.076-.457.076q-5.813.006-11.627,0Z" transform="matrix(1, -0.017, 0.017, 1, 1651.138, 1062.068)" fill="#fff" opacity="0.38"/>
    <path id="Path_193521" data-name="Path 193521" d="M19.607,11.876q-5.347,0-10.694,0A1.553,1.553,0,0,0,7.3,13.694a1.635,1.635,0,0,0,.463.9l8.61,9.6q1.207,1.345,2.416,2.689c.081.09.225.173.157.314-.058.121-.2.071-.313.071q-4.529-.027-9.057-.056a.7.7,0,0,1-.563-.254c-2.3-2.59-4.64-5.141-6.89-7.772A8.857,8.857,0,0,1,5.892,5.089,8.688,8.688,0,0,1,8.843,4.6l9.9,0c.56,0,.559,0,.59-.572.057-1.051.125-2.1.171-3.154.016-.37.1-.695.473-.828A.808.808,0,0,1,20.895.4c1.507,1.732,3.013,3.464,4.537,5.18,1.717,1.935,3.453,3.853,5.175,5.784.1.112.327.2.234.387-.073.142-.279.066-.425.066q-5.4.005-10.808,0Z" transform="translate(1697.858 1090.542) rotate(179)" fill="url(#linear-gradient)"/>
    <path id="Path_193520" data-name="Path 193520" d="M11.256,15.4q5.347,0,10.694,0a1.553,1.553,0,0,0,1.608-1.816,1.635,1.635,0,0,0-.463-.9l-8.61-9.6Q13.278,1.739,12.069.4c-.081-.09-.225-.173-.157-.314.058-.121.2-.071.313-.071q4.529.027,9.057.056a.7.7,0,0,1,.563.254c2.3,2.59,4.64,5.141,6.89,7.772a8.857,8.857,0,0,1-3.765,14.095,8.688,8.688,0,0,1-2.951.494l-9.9,0c-.56,0-.559,0-.59.572-.057,1.051-.125,2.1-.171,3.154-.016.37-.1.695-.473.828a.808.808,0,0,1-.922-.358c-1.507-1.732-3.013-3.464-4.537-5.18C3.714,19.759,1.978,17.841.256,15.91c-.1-.112-.327-.2-.234-.387.073-.142.279-.066.425-.066q5.4-.005,10.808,0Z" transform="translate(1683.702 1090.776) rotate(180)" fill="url(#linear-gradient-2)"/>
    <text id="ZLEAD" transform="translate(1711.783 1084.771)" fill="#f6742d" font-size="24" font-family="Museo900-Regular, 'Museo \39 00'"><tspan x="0" y="0">Z</tspan><tspan y="0" fill="#200e32">LEAD</tspan></text>
  </g>
</svg>
