<svg xmlns="http://www.w3.org/2000/svg" xmlns:xlink="http://www.w3.org/1999/xlink" width="435.974" height="274.86" viewBox="0 0 435.974 274.86">
  <defs>
    <linearGradient id="linear-gradient" x1="0.667" x2="0.398" y2="1.08" gradientUnits="objectBoundingBox">
      <stop offset="0" stop-color="#f1402c"/>
      <stop offset="0.485" stop-color="#f55638"/>
      <stop offset="1" stop-color="#fcec00"/>
    </linearGradient>
    <linearGradient id="linear-gradient-2" x1="0.731" y1="0.05" x2="0.348" y2="1.007" gradientUnits="objectBoundingBox">
      <stop offset="0" stop-color="#31069d"/>
      <stop offset="0.545" stop-color="#023b97"/>
      <stop offset="1" stop-color="#00ebed"/>
    </linearGradient>
    <clipPath id="clip-path">
      <path id="Path_193525" data-name="Path 193525" d="M103.813,142.044q49.317,0,98.635-.019c9.641-.014,15.974-7.283,14.832-16.75-.4-3.293-2.127-5.885-4.268-8.273Q173.3,72.725,133.6,28.448q-11.13-12.408-22.28-24.8c-.744-.83-2.073-1.591-1.444-2.9.536-1.117,1.887-.657,2.886-.651Q154.528.35,196.3.617a6.457,6.457,0,0,1,5.19,2.343c21.189,23.888,42.793,47.42,63.549,71.678,37.246,43.531,19.138,110.715-34.724,130a80.133,80.133,0,0,1-27.214,4.554q-45.633-.019-91.266-.027c-5.165,0-5.159.02-5.445,5.276-.528,9.7-1.154,19.387-1.578,29.087-.149,3.417-.876,6.409-4.366,7.64-3.617,1.276-6.17-.613-8.506-3.3-13.9-15.972-27.794-31.945-41.845-47.78-15.837-17.848-31.85-35.539-47.729-53.349-.922-1.034-3.02-1.876-2.158-3.565.67-1.313,2.578-.61,3.921-.612q49.844-.047,99.688-.025Z" transform="translate(284.653 251.576) rotate(180)" fill="url(#linear-gradient)"/>
    </clipPath>
    <linearGradient id="linear-gradient-6" x1="0.882" y1="0.872" x2="0.131" y2="0.846" gradientUnits="objectBoundingBox">
      <stop offset="0" stop-color="#fff"/>
      <stop offset="1" stop-color="#fff" stop-opacity="0"/>
    </linearGradient>
    <linearGradient id="linear-gradient-7" x1="0.5" y1="1" x2="0.5" y2="0" xlink:href="#linear-gradient-6"/>
    <clipPath id="clip-path-2">
      <path id="Path_193527" data-name="Path 193527" d="M180.839,109.532q-49.317,0-98.635.019c-9.641.014-15.974,7.283-14.832,16.75.4,3.293,2.128,5.885,4.268,8.273q39.709,44.276,79.416,88.554,11.13,12.408,22.28,24.8c.744.83,2.073,1.591,1.444,2.9-.536,1.117-1.887.657-2.886.651q-41.77-.251-83.538-.518a6.457,6.457,0,0,1-5.19-2.343c-21.189-23.888-42.793-47.42-63.549-71.678C-17.628,133.407.481,66.223,54.343,46.938a80.133,80.133,0,0,1,27.214-4.554q45.633.019,91.266.027c5.165,0,5.159-.02,5.445-5.276.528-9.7,1.154-19.387,1.578-29.087.149-3.417.876-6.409,4.366-7.64,3.617-1.276,6.17.613,8.506,3.3,13.9,15.972,27.794,31.945,41.845,47.78,15.837,17.848,31.85,35.539,47.729,53.349.922,1.034,3.02,1.876,2.158,3.566-.67,1.313-2.578.61-3.922.612q-49.844.047-99.688.025Z" transform="translate(289 251.538) rotate(179)" fill="url(#linear-gradient-2)"/>
    </clipPath>
    <linearGradient id="linear-gradient-8" x1="0.887" y1="0.128" x2="0.5" y2="1" xlink:href="#linear-gradient-6"/>
    <linearGradient id="linear-gradient-9" x1="0.5" y1="0" x2="0.5" y2="1" xlink:href="#linear-gradient-6"/>
  </defs>
  <g id="Group_87939" data-name="Group 87939" transform="translate(-63.177 -125.854)">
    <g id="Group_87937" data-name="Group 87937" transform="translate(63.177 125.855)">
      <path id="Path_193519" data-name="Path 193519" d="M191.539,116.492q-52.235,0-104.471.02c-10.212.015-16.919,7.745-15.71,17.814.421,3.5,2.253,6.259,4.521,8.8q42.058,47.09,84.114,94.18,11.789,13.2,23.6,26.373c.788.883,2.2,1.692,1.53,3.085-.568,1.188-2,.7-3.057.692q-44.241-.267-88.481-.55a6.827,6.827,0,0,1-5.5-2.492c-22.443-25.406-45.325-50.434-67.309-76.233-39.45-46.3-20.27-117.75,36.779-138.26a84.559,84.559,0,0,1,28.824-4.843q48.333.02,96.666.028c5.471,0,5.464-.022,5.767-5.611.559-10.312,1.222-20.619,1.671-30.935.158-3.634.928-6.816,4.624-8.126,3.831-1.357,6.536.652,9.01,3.508,14.718,16.987,29.438,33.975,44.32,50.817,16.774,18.982,33.735,37.8,50.553,56.739.976,1.1,3.2,2,2.285,3.792-.709,1.4-2.73.649-4.153.65q-52.793.05-105.586.026Z" transform="translate(435.974 269.598) rotate(179)" fill="#fff" opacity="0.3"/>
      <path id="Path_193523" data-name="Path 193523" d="M191.539,116.492q-52.235,0-104.471.02c-10.212.015-16.919,7.745-15.71,17.814.421,3.5,2.253,6.259,4.521,8.8q42.058,47.09,84.114,94.18,11.789,13.2,23.6,26.373c.788.883,2.2,1.692,1.53,3.085-.568,1.188-2,.7-3.057.692q-44.241-.267-88.481-.55a6.827,6.827,0,0,1-5.5-2.492c-22.443-25.406-45.325-50.434-67.309-76.233-39.45-46.3-20.27-117.75,36.778-138.26a84.559,84.559,0,0,1,28.824-4.843q48.333.02,96.666.028c5.471,0,5.464-.022,5.767-5.611.559-10.312,1.222-20.619,1.671-30.935.158-3.634.928-6.816,4.624-8.126,3.831-1.357,6.536.652,9.01,3.508,14.718,16.987,29.438,33.975,44.32,50.817,16.774,18.982,33.735,37.8,50.553,56.739.976,1.1,3.2,2,2.285,3.792-.709,1.4-2.73.649-4.154.65q-52.793.05-105.586.026Z" transform="matrix(1, -0.017, 0.017, 1, 0, 5.262)" fill="#fff" opacity="0.3"/>
      <path id="Path_193521" data-name="Path 193521" d="M180.839,109.532q-49.317,0-98.635.019c-9.641.014-15.974,7.283-14.832,16.75.4,3.293,2.128,5.885,4.268,8.273q39.709,44.276,79.416,88.554,11.13,12.408,22.28,24.8c.744.83,2.073,1.591,1.444,2.9-.536,1.117-1.887.657-2.886.651q-41.77-.251-83.538-.518a6.457,6.457,0,0,1-5.19-2.343c-21.189-23.888-42.793-47.42-63.549-71.678C-17.628,133.407.481,66.223,54.343,46.938a80.133,80.133,0,0,1,27.214-4.554q45.633.019,91.266.027c5.165,0,5.159-.02,5.445-5.276.528-9.7,1.154-19.387,1.578-29.087.149-3.417.876-6.409,4.366-7.64,3.617-1.276,6.17.613,8.506,3.3,13.9,15.972,27.794,31.945,41.845,47.78,15.837,17.848,31.85,35.539,47.729,53.349.922,1.034,3.02,1.876,2.158,3.566-.67,1.313-2.578.61-3.922.612q-49.844.047-99.688.025Z" transform="translate(426.739 259.685) rotate(179)" fill="url(#linear-gradient-2)"/>
      <path id="Path_193520" data-name="Path 193520" d="M103.813,142.044q49.317,0,98.635-.019c9.641-.014,15.974-7.283,14.832-16.75-.4-3.293-2.127-5.885-4.268-8.273Q173.3,72.725,133.6,28.448q-11.13-12.408-22.28-24.8c-.744-.83-2.073-1.591-1.444-2.9.536-1.117,1.887-.657,2.886-.651Q154.528.35,196.3.617a6.457,6.457,0,0,1,5.19,2.343c21.189,23.888,42.793,47.42,63.549,71.678,37.246,43.531,19.138,110.715-34.724,130a80.133,80.133,0,0,1-27.214,4.554q-45.633-.019-91.266-.027c-5.165,0-5.159.02-5.445,5.276-.528,9.7-1.154,19.387-1.578,29.087-.149,3.417-.876,6.409-4.366,7.64-3.617,1.276-6.17-.613-8.506-3.3-13.9-15.972-27.794-31.945-41.845-47.78-15.837-17.848-31.85-35.539-47.729-53.349-.922-1.034-3.02-1.876-2.158-3.565.67-1.313,2.578-.61,3.921-.612q49.844-.047,99.688-.025Z" transform="translate(296.179 261.842) rotate(180)" fill="url(#linear-gradient)"/>
      <path id="Path_193524" data-name="Path 193524" d="M103.813,142.044q49.317,0,98.635-.019c9.641-.014,15.974-7.283,14.832-16.75-.4-3.293-2.127-5.885-4.268-8.273Q173.3,72.725,133.6,28.448q-11.13-12.408-22.28-24.8c-.744-.83-2.073-1.591-1.444-2.9.536-1.117,1.887-.657,2.886-.651Q154.528.35,196.3.617a6.457,6.457,0,0,1,5.19,2.343c21.189,23.888,42.793,47.42,63.549,71.678,37.246,43.531,19.138,110.715-34.724,130a80.133,80.133,0,0,1-27.214,4.554q-45.633-.019-91.266-.027c-5.165,0-5.159.02-5.445,5.276-.528,9.7-1.154,19.387-1.578,29.087-.149,3.417-.876,6.409-4.366,7.64-3.617,1.276-6.17-.613-8.506-3.3-13.9-15.972-27.794-31.945-41.845-47.78-15.837-17.848-31.85-35.539-47.729-53.349-.922-1.034-3.02-1.876-2.158-3.565.67-1.313,2.578-.61,3.921-.612q49.844-.047,99.688-.025Z" transform="translate(296.179 261.842) rotate(180)" fill="url(#linear-gradient)"/>
    </g>
    <g id="Mask_Group_61335" data-name="Mask Group 61335" transform="translate(74.703 136.12)" clip-path="url(#clip-path)">
      <path id="Path_193526" data-name="Path 193526" d="M2904.77,496.667,2714,505.2s3.1,20.938,14.734,20.938S2904.77,496.667,2904.77,496.667Z" transform="translate(-2620.46 -382.686)" fill="#fff"/>
      <rect id="Rectangle_46603" data-name="Rectangle 46603" width="281.501" height="80.263" transform="translate(41.616 -29.875) rotate(13)" opacity="0.2" fill="url(#linear-gradient-6)"/>
      <path id="Path_193529" data-name="Path 193529" d="M2968.861,576.681s-92.089-76.191-104.691-125.241,121.97-86.874,117.1-90.344c-7.952-5.663-52.1-4.95-91.507,6.979-46.148,13.969-87.877,40.619-86.854,47.3,6.3,41.181,89.956,178.361,89.956,178.361Z" transform="translate(-2828.709 -322.785)" opacity="0.12" fill="url(#linear-gradient-7)"/>
    </g>
    <g id="Mask_Group_61336" data-name="Mask Group 61336" transform="translate(200.916 134.002)" clip-path="url(#clip-path-2)">
      <rect id="Rectangle_46604" data-name="Rectangle 46604" width="101.201" height="313.775" transform="translate(-52.51 238.328) rotate(-77)" opacity="0.14" fill="url(#linear-gradient-8)"/>
      <path id="Path_193528" data-name="Path 193528" d="M2815.426,374.727s92.089,76.191,104.69,125.241-121.97,86.874-117.1,90.344c7.952,5.663,52.1,4.95,91.507-6.979,46.148-13.969,87.877-40.619,86.854-47.3-6.3-41.181-89.956-178.362-89.956-178.362Z" transform="translate(-2665.278 -373.012)" opacity="0.12" fill="url(#linear-gradient-9)"/>
    </g>
  </g>
</svg>
