<svg id="ask-faq-help-svgrepo-com" xmlns="http://www.w3.org/2000/svg" width="14" height="28" viewBox="0 0 14 28">
  <path id="Path_154686" data-name="Path 154686" d="M31,0a7.008,7.008,0,0,0-7,7,1.75,1.75,0,1,0,3.5,0,3.5,3.5,0,0,1,7,0c0,1.518-.892,2.449-2.358,3.8-1.357,1.249-2.892,2.664-2.892,4.948a1.75,1.75,0,1,0,3.5,0c0-.713.67-1.367,1.764-2.375C35.983,12.018,38,10.16,38,7a7.008,7.008,0,0,0-7-7Z" transform="translate(-24)" fill="#757d91"/>
  <path id="Path_154687" data-name="Path 154687" d="M39.5,72A3.5,3.5,0,1,0,43,75.5,3.5,3.5,0,0,0,39.5,72Z" transform="translate(-32.5 -51)" fill="#757d91"/>
</svg>
